<?xml version="1.0" standalone="no"?>
<!DOCTYPE svg PUBLIC "-//W3C//DTD SVG 20010904//EN"
 "http://www.w3.org/TR/2001/REC-SVG-20010904/DTD/svg10.dtd">
<svg version="1.0" xmlns="http://www.w3.org/2000/svg"
 width="1250.000000pt" height="500.000000pt" viewBox="0 0 1250.000000 500.000000"
 preserveAspectRatio="xMidYMid meet">

<g transform="translate(0.000000,500.000000) scale(0.100000,-0.100000)"
fill="#000000" stroke="none">
<path d="M1830 4604 c-268 -48 -422 -94 -594 -178 -546 -267 -922 -757 -1047
-1366 -22 -103 -24 -141 -24 -360 1 -229 3 -253 28 -373 128 -589 498 -1071
1025 -1336 23 -12 70 -48 105 -80 243 -227 488 -367 793 -455 172 -49 309 -66
531 -66 363 0 667 81 962 256 151 90 236 156 384 302 522 513 697 1304 443
2006 -161 444 -506 834 -924 1045 -34 17 -99 65 -144 107 -264 243 -557 395
-906 471 -104 22 -145 25 -362 28 -135 2 -256 1 -270 -1z m995 -815 c283 -34
554 -152 782 -342 248 -206 424 -495 500 -816 19 -82 26 -145 30 -280 4 -118
2 -172 -4 -168 -6 4 -14 22 -17 41 -4 20 -25 71 -47 116 -88 175 -268 313
-458 351 -96 19 -271 7 -353 -23 -263 -98 -430 -321 -445 -594 -14 -250 103
-475 317 -609 89 -56 195 -87 315 -92 171 -8 318 38 444 137 28 22 51 37 51
32 0 -13 -99 -153 -159 -226 -202 -244 -512 -424 -856 -498 -135 -29 -414 -31
-555 -4 -596 115 -1057 557 -1198 1150 -24 102 -27 129 -27 326 0 230 8 293
61 464 37 116 132 306 205 411 169 237 431 439 703 540 225 83 474 113 711 84z"/>
<path d="M4870 2380 l0 -620 260 0 260 0 2 417 3 418 349 -418 348 -417 309 0
309 0 0 620 0 620 -260 0 -260 0 -2 -414 -3 -413 -345 411 -346 411 -312 3
-312 2 0 -620z"/>
<path d="M6990 2380 l0 -620 745 0 745 0 0 155 0 155 -485 0 -485 0 0 95 0 95
385 0 385 0 0 120 0 120 -385 0 -385 0 0 100 0 100 455 0 455 0 0 150 0 150
-715 0 -715 0 0 -620z"/>
<path d="M8690 2380 l0 -620 260 0 260 0 2 178 3 177 215 0 c184 0 222 -3 262
-18 71 -28 120 -89 147 -184 12 -43 29 -95 38 -115 l16 -38 247 0 247 0 -17
68 c-10 37 -23 96 -30 132 -21 113 -64 172 -164 222 l-28 15 54 31 c71 39 138
115 163 183 15 41 20 78 20 154 0 89 -4 107 -29 162 -69 152 -226 229 -528
262 -56 7 -317 11 -618 11 l-520 0 0 -620z m1054 296 c32 -8 70 -23 85 -33 55
-41 51 -130 -6 -169 -50 -33 -131 -43 -378 -45 l-230 -3 -3 124 c-1 68 0 130
3 139 5 12 39 13 238 8 142 -4 255 -12 291 -21z"/>
<path d="M10591 2788 c65 -117 221 -396 346 -620 l228 -408 244 3 244 2 340
605 c186 333 341 611 344 618 4 10 -49 12 -258 10 l-263 -3 -196 -423 c-107
-232 -199 -429 -205 -437 -8 -11 -58 90 -212 423 l-201 437 -266 3 -265 2 120
-212z"/>
</g>
</svg>
